<?xml version="1.0" encoding="UTF-8"?>
<!-- Same geometry as split-the-g /public/icons/nav/pour.svg; single fill matches CSS mask + currentColor (web mobile FAB). -->
<svg xmlns="http://www.w3.org/2000/svg" viewBox="0 0 245.76 484.22">
  <path fill="#0B0B0B" d="M16.04,19.09C57.76-9.92,198.26-1.77,233.57,16.48c8.53,102.84,29.23,204.27-16.04,305.29-29.04,78.29,32.97,141.88-12.54,152.27-27.67,9.42-196.24,26.16-180.33-26.51C58.62,356.72,11.43,298.21.9,212.33-3.04,152.3,6.85,91.25,13,31.58M224.22,88.86l-6.04-53.94c-65.15-13.89-127.21-15.4-190.15.65l-5.17,53.22c69.95-9.9,131.64-9.5,201.36.07h0ZM196.74,416.64c-19.62-118.53,54.96-161.49,28.66-310.14-70.13-9.88-136.03-9.71-204.83.63-2.36,35.25-4.31,67.74-2.33,101.81,6.86,75.11,49.95,129.13,32.52,208.67,49.43,11.89,99.46,13.72,145.98-.98h0ZM204.6,455.66c-1.45-7.37-3.93-14.47-7.31-20.04-49.91,11.67-97.39,11.91-147.31,0-4.39,5.17-8.57,15.15-8.72,20.08,55.74,16.9,108.49,14.14,163.34-.05h0Z" />
  <path fill="#0B0B0B" d="M199.3,422.04c-48.15,15.26-99.96,13.36-151.13,1.02,18.08-82.13-26.57-138.91-33.67-216.65-2.04-35.37-.03-69.11,2.42-105.7,71.23-10.73,139.45-10.9,212.06-.65,27.23,154.52-49.89,198.26-29.67,321.98h0Z" />
  <path fill="#0B0B0B" d="M204.6,455.66c-54.85,14.19-107.6,16.95-163.34.05.15-4.93,4.33-14.91,8.72-20.08,49.92,11.9,97.4,11.66,147.31,0,3.39,5.56,5.86,12.67,7.31,20.04h0Z" />
  <path fill="#0B0B0B" d="M127.66,261.18h-20.48l-24.27-81.26c-.24-.82-.71-2.35-.71-3.06,0-.94.71-1.53,1.66-1.53.71,0,1.31.35,1.55,1.06l26.05,78.67c27.85-22.23,42.72-49.74,40.1-83.73,3.81-.82,8.68-2.59,11.53-4.23,6.54,36.22-5.71,69.38-35.44,94.07" />
  <path fill="#0B0B0B" d="M132.9,195.67c7.13-15.77,14.31-26.03,14.67-26.5-.12.58-3.21,12.68-10.52,28.37-7.13,15.77-14.32,26.03-14.68,26.51.12-.58,3.22-12.68,10.52-28.37h.01ZM126.54,191.29c5.84-12.92,11.85-21.29,12.15-21.68-.09.48-2.5,10.46-8.5,23.31-5.84,12.93-11.86,21.29-12.16,21.68.09-.48,2.5-10.46,8.51-23.31h0ZM121.02,186.49c4.86-10.73,9.87-17.66,10.13-17.98-.07.4-2.04,8.69-7.02,19.37-4.85,10.73-9.87,17.65-10.13,17.97.08-.4,2.04-8.69,7.02-19.36h0ZM116.15,181.61c4.06-8.97,8.27-14.76,8.48-15.02-.06.34-1.7,7.28-5.87,16.2-4.05,8.97-8.26,14.76-8.47,15.02.06-.33,1.7-7.27,5.86-16.19h0ZM111.7,176.79c3.37-7.48,6.91-12.28,7.09-12.51-.05.28-1.38,6.07-4.85,13.51-3.37,7.48-6.91,12.28-7.08,12.51.05-.28,1.38-6.07,4.85-13.51h0ZM107.66,172.2c2.78-6.16,5.68-10.13,5.83-10.31-.04.23-1.15,5-4.01,11.13-2.78,6.16-5.68,10.13-5.83,10.31.04-.23,1.16-5,4.01-11.12h0ZM103.87,167.72c2.26-5.01,4.66-8.23,4.78-8.37-.03.19-.9,4.09-3.23,9.07-2.26,5.01-4.66,8.23-4.78,8.37.03-.19.9-4.09,3.22-9.07h.01ZM104.09,156.93c-.02.15-.66,3.22-2.49,7.13-1.77,3.93-3.69,6.44-3.79,6.55.02-.15.67-3.22,2.5-7.13,1.77-3.93,3.69-6.44,3.78-6.55h0Z" />
  <path fill="#0B0B0B" d="M163.23,143.59c-10.95,8.46-27.95,11.87-48.43,4.23-7.97-2.94-14.99-4.23-20.82-4.23-15.34,0-23.19,8.58-23.19,17.64,0,7.41,5.12,12.46,11.78,12.46,1.54,0,3.09-.35,4.4-.94l27.48,74.79c2.14-1.41,11.43-10.58,14.29-14.7-1.55-.24-2.97-1.41-3.81-3.29,0,0-29.16-63.27-30.83-67.09-1.8-4.12-3.3-7.01-5.7-8.28,2.87-1,7.6-.82,11.58.77,3.78,1.52,10.12,5.54,18.08,9.02,8.43,3.68,14.47,5.34,21.16,5.67,11.27.56,23.72-4.14,30.21-10.17l-6.18-15.88h-.02ZM82.21,167.1c-2.38,0-4.4-2-4.4-4.35s2.02-4.35,4.4-4.35,4.4,2,4.4,4.35-2.02,4.35-4.4,4.35Z" />
</svg>
